<svg xmlns="http://www.w3.org/2000/svg" width="1024" height="1024" viewBox="0 0 1024 1024" role="img" aria-labelledby="title desc">
  <title id="title">SkillPreflight avatar</title>
  <desc id="desc">A shield and check mark surrounded by a multi-category score ring.</desc>

  <rect width="1024" height="1024" rx="192" fill="#171a18"/>

  <circle cx="512" cy="512" r="350" fill="none" stroke="#303733" stroke-width="64"/>
  <path d="M279.2 250.8A350 350 0 0 1 792.7 302.4" fill="none" stroke="#16a34a" stroke-width="64" stroke-linecap="round"/>
  <path d="M826.6 358.5A350 350 0 0 1 850.5 600.9" fill="none" stroke="#0891b2" stroke-width="64" stroke-linecap="round"/>
  <path d="M828.2 664.7A350 350 0 0 1 728.1 787.4" fill="none" stroke="#d97706" stroke-width="64" stroke-linecap="round"/>

  <path d="M512 280l214 76v158c0 150-86 254-214 306-128-52-214-156-214-306V356l214-76z" fill="#222824" stroke="#75d69a" stroke-width="42" stroke-linejoin="round"/>
  <path d="M403 518l75 76 151-171" fill="none" stroke="#ffffff" stroke-width="54" stroke-linecap="round" stroke-linejoin="round"/>
</svg>
